<?xml version="1.0" encoding="utf-8"?>
<!-- Generator: Adobe Illustrator 16.0.0, SVG Export Plug-In . SVG Version: 6.00 Build 0)  -->
<!DOCTYPE svg PUBLIC "-//W3C//DTD SVG 1.1//EN" "http://www.w3.org/Graphics/SVG/1.1/DTD/svg11.dtd">
<svg xmlns="http://www.w3.org/2000/svg" xmlns:xlink="http://www.w3.org/1999/xlink" version="1.1" id="Layer_1" x="0px" y="0px" width="100px" height="100px" viewBox="0 0 100 100" enable-background="new 0 0 100 100" xml:space="preserve">

<g>
	<path fill="#E6E7E8" d="M80.997,92.351c0,0.659-7.462,1.192-16.671,1.192c-9.202,0-16.667-0.533-16.667-1.192   c0-0.657,7.465-1.19,16.667-1.19C73.535,91.16,80.997,91.693,80.997,92.351z"/>
	<g>
		
			<radialGradient id="SVGID_13_" cx="1407.46" cy="71.5918" r="40.8454" gradientTransform="matrix(-0.8245 -0.5659 0.5659 -0.8245 1176.5486 899.7035)" gradientUnits="userSpaceOnUse">
			<stop offset="0" style="stop-color:#EC1C24"/>
			<stop offset="0.1535" style="stop-color:#D31C22"/>
			<stop offset="0.3554" style="stop-color:#B81B20"/>
			<stop offset="0.562" style="stop-color:#A51B1F"/>
			<stop offset="0.7741" style="stop-color:#9A1B1E"/>
			<stop offset="1" style="stop-color:#961B1E"/>
		</radialGradient>
		<path fill="url(#SVGID_13_)" d="M88.346,76.886c0,0-18.155,4.72-30.253-13.928C51.329,52.063,44.792,39.54,43.054,16.28    c5.902-0.98,20.351,6.928,23.183,14.379C69.07,38.114,70.989,63.868,88.346,76.886z"/>
		
			<radialGradient id="SVGID_14_" cx="1410.9092" cy="38.0605" r="36.0141" gradientTransform="matrix(-0.8245 -0.5659 0.5659 -0.8245 1176.5486 899.7035)" gradientUnits="userSpaceOnUse">
			<stop offset="0" style="stop-color:#E6E7E8"/>
			<stop offset="1" style="stop-color:#58595B"/>
		</radialGradient>
		<path fill="url(#SVGID_14_)" d="M89.323,78.892c0,0-8.866,16.532-30.767,12.744c-12.593-2.437-26.225-6.141-44.477-20.669    c3.293-4.995,18.907-10.225,26.302-7.246C47.778,66.703,67.982,82.784,89.323,78.892z"/>
		<g>
			
				<rect x="39.73" y="22.581" transform="matrix(-0.9213 0.3888 -0.3888 -0.9213 96.9363 35.7803)" fill="#FFFFFF" width="10.234" height="10.237"/>
			<path fill="#FFFFFF" d="M35.729,23.99l12.819-5.414l5.417,12.83l-11.128,4.696l-1.702,0.715L35.729,23.99L35.729,23.99z      M42.123,34.402l1.699-0.715L42.123,34.402L42.123,34.402z M40.557,25.953l2.546,6.035l6.028-2.546l-2.546-6.035L40.557,25.953     L40.557,25.953z"/>
		</g>
		
			<rect x="39.73" y="22.581" transform="matrix(-0.9213 0.3888 -0.3888 -0.9213 96.9363 35.7803)" fill="#961B1E" width="10.234" height="10.237"/>
		
			<rect x="34.28" y="35.993" transform="matrix(-0.9213 0.3889 -0.3889 -0.9213 91.681 63.661)" fill="#6D6E70" width="10.234" height="10.233"/>
		<g>
			<polygon fill="#FFFFFF" points="25.774,74.637 35.199,70.66 31.222,61.227 21.79,65.208    "/>
			<path fill="#FFFFFF" d="M19.373,64.224l12.827-5.414l5.417,12.831l-11.131,4.694l-1.699,0.719L19.373,64.224L19.373,64.224z      M25.77,74.637l1.699-0.715L25.77,74.637L25.77,74.637z M24.204,66.188l2.547,6.034l6.031-2.547l-2.543-6.034L24.204,66.188     L24.204,66.188z"/>
		</g>
		<polygon fill="#E6E7E8" points="25.774,74.637 35.199,70.66 31.222,61.227 21.79,65.208   "/>
		<polygon fill="#961B1E" points="31.222,61.227 40.655,57.247 36.671,47.815 27.238,51.795   "/>
		<polygon fill="#929497" points="28.71,28.953 38.143,24.974 34.16,15.545 24.727,19.524   "/>
		
			<rect x="20.869" y="30.541" transform="matrix(-0.9213 0.3889 -0.3889 -0.9213 63.7953 58.4051)" fill="#961B1E" width="10.234" height="10.238"/>
		<g>
			<polygon fill="#FFFFFF" points="21.587,55.932 31.02,51.947 27.037,42.52 17.61,46.5    "/>
			<path fill="#FFFFFF" d="M15.193,45.52l12.819-5.417l5.421,12.83l-11.128,4.694l-1.702,0.719L15.193,45.52L15.193,45.52z      M21.587,55.929l1.702-0.715L21.587,55.929L21.587,55.929z M20.025,47.48l2.546,6.035l6.028-2.543l-2.546-6.039L20.025,47.48     L20.025,47.48z"/>
		</g>
		<polygon fill="#D0D2D3" points="21.587,55.932 31.02,51.947 27.037,42.52 17.61,46.5   "/>
		<polygon fill="#BBBDBF" points="15.302,23.505 24.727,19.524 20.75,10.096 11.318,14.072   "/>
		
			<rect x="13.818" y="56.627" transform="matrix(-0.9214 0.3886 -0.3886 -0.9214 54.6426 107.4727)" fill="#6D6E70" width="5.27" height="5.271"/>
		<g>
			
				<rect x="9.053" y="20.342" transform="matrix(-0.9212 0.3892 -0.3892 -0.9212 34.8128 41.8592)" fill="#FFFFFF" width="8.228" height="8.227"/>
			<path fill="#FFFFFF" d="M5.36,21.282l10.974-4.635l4.64,10.977l-9.279,3.921L9.992,32.26L5.36,21.282L5.36,21.282z      M10.976,29.847l1.695-0.719L10.976,29.847L10.976,29.847z M10.191,23.243l1.765,4.187l4.182-1.765l-1.765-4.187L10.191,23.243     L10.191,23.243z"/>
		</g>
		
			<rect x="9.053" y="20.342" transform="matrix(-0.9212 0.3892 -0.3892 -0.9212 34.8128 41.8592)" fill="#BBBDBF" width="8.228" height="8.227"/>
	</g>
</g>
</svg>
