<?xml version="1.0" encoding="utf-8"?>
<!-- Generator: Adobe Illustrator 16.0.0, SVG Export Plug-In . SVG Version: 6.00 Build 0)  -->
<!DOCTYPE svg PUBLIC "-//W3C//DTD SVG 1.1//EN" "http://www.w3.org/Graphics/SVG/1.1/DTD/svg11.dtd">
<svg version="1.1" id="Layer_1" xmlns="http://www.w3.org/2000/svg" xmlns:xlink="http://www.w3.org/1999/xlink" x="0px" y="0px"
	 width="100px" height="100px" viewBox="0 0 100 100" enable-background="new 0 0 100 100" xml:space="preserve">
<g>
	<polygon fill="#206496" points="23.235,38.274 23.235,75.212 49.073,88.422 49.073,51.672 	"/>
	<polygon fill="#18517C" points="77.4,38.274 77.4,75.212 51.563,88.422 51.563,51.672 	"/>
	<path fill="#FFCA0B" d="M14.383,27.94l11.978,7.134c-0.243,0.621-0.451,1.258-0.65,1.899l24.606,12.759L74.92,36.973
		c-0.173-0.563-0.352-1.13-0.559-1.678l12.944-8.504l-14.29,5.558c-0.555-1.033-1.179-2.021-1.86-2.964l10.552-8.621L70.02,27.934
		c-1.145-1.362-2.434-2.603-3.834-3.702l8.774-10.218l-10.37,9.058c-1.734-1.158-3.616-2.11-5.616-2.823l5.073-10.683l-6.764,10.148
		c-2.139-0.599-4.395-0.933-6.719-0.955L49.264,6.408l-0.408,12.39c-2.008,0.11-3.955,0.458-5.815,1.006L36.488,8.273l4.454,12.249
		c-2.095,0.82-4.059,1.906-5.846,3.216l-8.799-9.435l7.602,10.367c-1.153,0.957-2.22,2.014-3.192,3.157l-10.724-6.492l9.64,7.852
		c-0.824,1.11-1.552,2.29-2.19,3.523L14.383,27.94z"/>
	<polygon fill="#FFCA0B" points="22.085,77.319 50.031,91.866 78.55,77.701 50.031,94.928 	"/>
</g>
</svg>
