<?xml version="1.0" encoding="iso-8859-1"?>
<!-- Generator: Adobe Illustrator 13.0.0, SVG Export Plug-In . SVG Version: 6.00 Build 14948)  -->
<!DOCTYPE svg PUBLIC "-//W3C//DTD SVG 1.1//EN" "http://www.w3.org/Graphics/SVG/1.1/DTD/svg11.dtd">
<svg version="1.1" id="Layer_1" xmlns="http://www.w3.org/2000/svg" xmlns:xlink="http://www.w3.org/1999/xlink" x="0px" y="0px"
	 width="100px" height="100px" viewBox="0 0 100 100" enable-background="new 0 0 100 100" xml:space="preserve">
<g>
	<path fill="none" d="M59.417,39.425c-1.195,0-2.177-0.8-2.523-1.881c-9.003,2.549-17.399,6.453-23.91,10.866
		c2.096,1.506,4.321,3,6.644,4.47c0.954-0.915,2.236-1.492,3.664-1.492c2.939,0,5.323,2.38,5.323,5.32
		c0,0.456-0.151,0.864-0.258,1.288c7.269,3.944,14.205,6.957,20.201,8.881c6.291-2.885,11.841-6.326,16.01-9.933
		c-0.752-1.017-1.608-2.062-2.604-3.147c1.019,1.043,1.889,2.048,2.723,3.041c4.357-3.793,7.21-7.751,7.845-11.402
		c1.631-9.35-11.852-13.253-30.515-9.182c0.03,0.163,0.097,0.31,0.097,0.481C62.111,38.221,60.908,39.425,59.417,39.425z"/>
	<path fill="none" d="M56.801,37.092c-0.018-0.122-0.069-0.229-0.069-0.356c0-0.583,0.222-1.094,0.538-1.533
		c-0.689-0.397-1.343-0.814-2.051-1.201c-3.985-2.179-7.863-4.055-11.559-5.625c-15.973-7.164-28.669-8.887-30.225-3.458
		c-1.356,4.786,6.313,13.785,18.5,22.716C38.981,43.307,47.632,39.558,56.801,37.092z"/>
	<path fill="none" d="M88.087,66.176c0.402-1.428-0.029-3.235-1.107-5.3c-0.272-0.618-0.635-1.27-1.044-1.934
		c-3.716,3.193-8.416,6.267-13.723,9.003C80.943,70.24,87.039,69.827,88.087,66.176z"/>
	<path fill="none" d="M47.713,59.494c-0.941,1.49-2.527,2.537-4.422,2.537c-2.935,0-5.313-2.383-5.313-5.323
		c0-0.884,0.268-1.683,0.647-2.415c-2.524-1.561-4.933-3.152-7.213-4.758c-6.332,4.598-10.604,9.633-11.403,14.188
		c-1.191,6.861,5.752,10.798,16.918,10.802c4.756,0,10.27-0.714,16.259-2.224c4.671-1.177,9.198-2.745,13.438-4.563
		C60.89,65.831,54.447,63.055,47.713,59.494z"/>
	
		<linearGradient id="SVGID_1_" gradientUnits="userSpaceOnUse" x1="-837.4561" y1="699.6504" x2="-833.1256" y2="699.6504" gradientTransform="matrix(0.6219 -1.0778 -1.0778 -0.6219 1334.0698 -406.3021)">
		<stop  offset="0" style="stop-color:#64A7DE"/>
		<stop  offset="1" style="stop-color:#5887C5"/>
	</linearGradient>
	<path fill="url(#SVGID_1_)" d="M48.355,57.996c-0.14,0.544-0.347,1.033-0.642,1.498c6.734,3.561,13.176,6.337,18.91,8.243
		c0.653-0.282,1.296-0.566,1.934-0.86C62.561,64.953,55.624,61.94,48.355,57.996z"/>
	
		<linearGradient id="SVGID_2_" gradientUnits="userSpaceOnUse" x1="-837.4561" y1="730.2207" x2="-833.1307" y2="730.2207" gradientTransform="matrix(0.6219 -1.0778 -1.0778 -0.6219 1334.0698 -406.3021)">
		<stop  offset="0" style="stop-color:#64A7DE"/>
		<stop  offset="1" style="stop-color:#5887C5"/>
	</linearGradient>
	<path fill="url(#SVGID_2_)" d="M9.938,23.799c-1.573,5.312,6.891,15.248,20.321,24.92c0.556-0.361,1.098-0.729,1.677-1.084
		c-12.187-8.931-19.856-17.93-18.5-22.716c1.555-5.429,14.252-3.706,30.225,3.458c3.695,1.57,7.573,3.446,11.559,5.625
		c0.708,0.387,1.361,0.804,2.051,1.201c0.012-0.013,0.019-0.028,0.03-0.041c-1.687-1.011-3.307-2.048-5.062-3.022
		c-3.734-2.061-7.374-3.878-10.898-5.481c-9.66-4.181-18.141-6.43-23.882-6.43C13.353,20.229,10.655,21.381,9.938,23.799z"/>
	
		<linearGradient id="SVGID_3_" gradientUnits="userSpaceOnUse" x1="-837.4561" y1="682.5371" x2="-833.1309" y2="682.5371" gradientTransform="matrix(0.6219 -1.0778 -1.0778 -0.6219 1334.0698 -406.3021)">
		<stop  offset="0" style="stop-color:#64A7DE"/>
		<stop  offset="1" style="stop-color:#5887C5"/>
	</linearGradient>
	<path fill="url(#SVGID_3_)" d="M86.979,60.876c1.078,2.064,1.51,3.872,1.107,5.3c-1.048,3.651-7.144,4.064-15.874,1.77
		c-0.612,0.315-1.225,0.631-1.852,0.938c10.235,2.867,17.526,2.529,18.766-1.683c0.495-1.664-0.033-3.797-1.357-6.216
		c-0.428-0.712-1.037-1.484-1.602-2.243c-0.074,0.064-0.155,0.133-0.232,0.201C86.345,59.606,86.707,60.258,86.979,60.876z"/>
	
		<linearGradient id="SVGID_4_" gradientUnits="userSpaceOnUse" x1="-837.4551" y1="720.127" x2="-833.1293" y2="720.127" gradientTransform="matrix(0.6219 -1.0778 -1.0778 -0.6219 1334.0698 -406.3021)">
		<stop  offset="0" style="stop-color:#64A7DE"/>
		<stop  offset="1" style="stop-color:#5887C5"/>
	</linearGradient>
	<path fill="url(#SVGID_4_)" d="M38.625,54.293c0.271-0.52,0.583-1.009,1.002-1.413c-2.323-1.47-4.548-2.964-6.644-4.47
		c-0.544,0.371-1.051,0.749-1.572,1.125C33.692,51.141,36.102,52.732,38.625,54.293z"/>
	
		<linearGradient id="SVGID_5_" gradientUnits="userSpaceOnUse" x1="-370.3979" y1="585.2969" x2="-366.0708" y2="585.2969" gradientTransform="matrix(-5.6938 1.4141 1.5154 6.0159 -2931.0503 -2931.509)">
		<stop  offset="0" style="stop-color:#4674B7"/>
		<stop  offset="1" style="stop-color:#5887C5"/>
	</linearGradient>
	<path fill="url(#SVGID_5_)" d="M72.213,67.945c5.307-2.736,10.007-5.81,13.723-9.003c-0.395-0.647-0.859-1.315-1.369-1.998
		c-4.169,3.606-9.719,7.048-16.01,9.933C69.822,67.283,71.04,67.638,72.213,67.945z"/>
	
		<linearGradient id="SVGID_6_" gradientUnits="userSpaceOnUse" x1="-370.3984" y1="580.915" x2="-366.0735" y2="580.915" gradientTransform="matrix(-5.6938 1.4141 1.5154 6.0159 -2931.0503 -2931.509)">
		<stop  offset="0" style="stop-color:#4674B7"/>
		<stop  offset="1" style="stop-color:#5887C5"/>
	</linearGradient>
	<path fill="url(#SVGID_6_)" d="M56.894,37.544c-0.052-0.146-0.074-0.297-0.093-0.452c-9.168,2.466-17.819,6.215-24.865,10.543
		c0.353,0.26,0.688,0.518,1.048,0.775C39.495,43.997,47.891,40.093,56.894,37.544z"/>
	
		<linearGradient id="SVGID_7_" gradientUnits="userSpaceOnUse" x1="-370.3999" y1="583.8096" x2="-366.0744" y2="583.8096" gradientTransform="matrix(-5.6938 1.4141 1.5154 6.0159 -2931.0503 -2931.509)">
		<stop  offset="0" style="stop-color:#4674B7"/>
		<stop  offset="1" style="stop-color:#5887C5"/>
	</linearGradient>
	<path fill="url(#SVGID_7_)" d="M53.186,72.301c-5.989,1.51-11.503,2.224-16.259,2.224c-11.166-0.004-18.109-3.94-16.918-10.802
		c0.799-4.555,5.072-9.59,11.403-14.188c-0.386-0.273-0.776-0.542-1.153-0.815c-8.547,5.571-14.43,11.933-15.421,17.617
		c-1.888,10.79,14.486,15.037,36.58,9.464c6.7-1.689,13.143-4.094,18.943-6.918c-1.207-0.338-2.454-0.72-3.738-1.146
		C62.384,69.556,57.856,71.124,53.186,72.301z"/>
	
		<linearGradient id="SVGID_8_" gradientUnits="userSpaceOnUse" x1="-370.3994" y1="582.7607" x2="-366.0731" y2="582.7607" gradientTransform="matrix(-5.6938 1.4141 1.5154 6.0159 -2931.0503 -2931.509)">
		<stop  offset="0" style="stop-color:#4674B7"/>
		<stop  offset="1" style="stop-color:#5887C5"/>
	</linearGradient>
	<path fill="url(#SVGID_8_)" d="M92.529,45.436c-0.635,3.651-3.487,7.609-7.845,11.402c0.55,0.652,1.019,1.276,1.483,1.903
		c4.808-4.183,7.951-8.548,8.656-12.571c1.321-7.579-6.343-11.925-18.663-11.925c-4.243,0-9.055,0.548-14.228,1.625
		c0.045,0.122,0.056,0.255,0.081,0.384C80.678,32.183,94.16,36.086,92.529,45.436z"/>
	
		<linearGradient id="SVGID_9_" gradientUnits="userSpaceOnUse" x1="-837.4561" y1="689.8506" x2="-833.128" y2="689.8506" gradientTransform="matrix(0.6219 -1.0778 -1.0778 -0.6219 1334.0698 -406.3021)">
		<stop  offset="0" style="stop-color:#64A7DE"/>
		<stop  offset="1" style="stop-color:#5887C5"/>
	</linearGradient>
	<path fill="url(#SVGID_9_)" d="M68.557,66.877c-0.638,0.294-1.28,0.578-1.934,0.86c1.284,0.426,2.531,0.808,3.738,1.146
		c0.627-0.307,1.239-0.622,1.852-0.938C71.04,67.638,69.822,67.283,68.557,66.877z"/>
	
		<linearGradient id="SVGID_10_" gradientUnits="userSpaceOnUse" x1="-370.3975" y1="585.8008" x2="-366.0695" y2="585.8008" gradientTransform="matrix(-5.6938 1.4141 1.5154 6.0159 -2931.0503 -2931.509)">
		<stop  offset="0" style="stop-color:#4674B7"/>
		<stop  offset="1" style="stop-color:#5887C5"/>
	</linearGradient>
	<path fill="url(#SVGID_10_)" d="M68.557,66.877c-0.638,0.294-1.28,0.578-1.934,0.86c1.284,0.426,2.531,0.808,3.738,1.146
		c0.627-0.307,1.239-0.622,1.852-0.938C71.04,67.638,69.822,67.283,68.557,66.877z"/>
	
		<linearGradient id="SVGID_11_" gradientUnits="userSpaceOnUse" x1="-837.4512" y1="723.9004" x2="-833.114" y2="723.9004" gradientTransform="matrix(0.6219 -1.0778 -1.0778 -0.6219 1334.0698 -406.3021)">
		<stop  offset="0" style="stop-color:#64A7DE"/>
		<stop  offset="1" style="stop-color:#5887C5"/>
	</linearGradient>
	<path fill="url(#SVGID_11_)" d="M32.984,48.41c-0.36-0.257-0.695-0.515-1.048-0.775c-0.579,0.356-1.122,0.723-1.677,1.084
		c0.377,0.273,0.768,0.542,1.153,0.815C31.933,49.159,32.439,48.781,32.984,48.41z"/>
	
		<linearGradient id="SVGID_12_" gradientUnits="userSpaceOnUse" x1="-370.3862" y1="581.3145" x2="-366.0726" y2="581.3145" gradientTransform="matrix(-5.6938 1.4141 1.5154 6.0159 -2931.0503 -2931.509)">
		<stop  offset="0" style="stop-color:#4674B7"/>
		<stop  offset="1" style="stop-color:#5887C5"/>
	</linearGradient>
	<path fill="url(#SVGID_12_)" d="M32.984,48.41c-0.36-0.257-0.695-0.515-1.048-0.775c-0.579,0.356-1.122,0.723-1.677,1.084
		c0.377,0.273,0.768,0.542,1.153,0.815C31.933,49.159,32.439,48.781,32.984,48.41z"/>
	
		<linearGradient id="SVGID_13_" gradientUnits="userSpaceOnUse" x1="-837.4209" y1="682.7637" x2="-833.1078" y2="682.7637" gradientTransform="matrix(0.6219 -1.0778 -1.0778 -0.6219 1334.0698 -406.3021)">
		<stop  offset="0" style="stop-color:#64A7DE"/>
		<stop  offset="1" style="stop-color:#5887C5"/>
	</linearGradient>
	<path fill="url(#SVGID_13_)" d="M84.566,56.944c0.51,0.683,0.975,1.351,1.369,1.998c0.077-0.068,0.158-0.137,0.232-0.201
		c-0.465-0.627-0.934-1.251-1.483-1.903C84.647,56.874,84.611,56.909,84.566,56.944z"/>
	
		<linearGradient id="SVGID_14_" gradientUnits="userSpaceOnUse" x1="-370.4023" y1="584.8535" x2="-366.0801" y2="584.8535" gradientTransform="matrix(-5.6938 1.4141 1.5154 6.0159 -2931.0503 -2931.509)">
		<stop  offset="0" style="stop-color:#4674B7"/>
		<stop  offset="1" style="stop-color:#5887C5"/>
	</linearGradient>
	<path fill="url(#SVGID_14_)" d="M84.566,56.944c0.51,0.683,0.975,1.351,1.369,1.998c0.077-0.068,0.158-0.137,0.232-0.201
		c-0.465-0.627-0.934-1.251-1.483-1.903C84.647,56.874,84.611,56.909,84.566,56.944z"/>
	
		<radialGradient id="SVGID_15_" cx="-790.6167" cy="290.6855" r="4.3247" gradientTransform="matrix(1.2297 0 0 -1.2297 1015.5189 414.1635)" gradientUnits="userSpaceOnUse">
		<stop  offset="0" style="stop-color:#75C3F1"/>
		<stop  offset="0.2747" style="stop-color:#75C3F1"/>
		<stop  offset="0.3702" style="stop-color:#72BEEE"/>
		<stop  offset="0.9341" style="stop-color:#64A7DE"/>
		<stop  offset="1" style="stop-color:#64A7DE"/>
	</radialGradient>
	<path fill="url(#SVGID_15_)" d="M43.359,52.072c2.723,0,4.926,2.199,4.926,4.916c0,0.197-0.041,0.386-0.062,0.576
		c-0.118,0.068-0.251,0.096-0.376,0.158c0.17,0.093,0.339,0.18,0.509,0.273c0.107-0.424,0.258-0.832,0.258-1.288
		c0-2.94-2.383-5.32-5.323-5.32c-1.428,0-2.71,0.577-3.664,1.492c0.199,0.128,0.395,0.253,0.596,0.376
		C41.074,52.531,42.155,52.072,43.359,52.072z"/>
	
		<radialGradient id="SVGID_16_" cx="-790.6191" cy="290.6807" r="4.3249" gradientTransform="matrix(1.2297 0 0 -1.2297 1015.5189 414.1635)" gradientUnits="userSpaceOnUse">
		<stop  offset="0" style="stop-color:#75C3F1"/>
		<stop  offset="0.2747" style="stop-color:#75C3F1"/>
		<stop  offset="0.3702" style="stop-color:#72BEEE"/>
		<stop  offset="0.9341" style="stop-color:#64A7DE"/>
		<stop  offset="1" style="stop-color:#64A7DE"/>
	</radialGradient>
	<path fill="url(#SVGID_16_)" d="M45.559,58.347c-0.147,0.011-0.288,0.061-0.443,0.061c-2.513,0-4.63-1.492-5.658-3.61
		c-0.278-0.168-0.559-0.336-0.832-0.504c-0.38,0.732-0.647,1.531-0.647,2.415c0,2.94,2.378,5.323,5.313,5.323
		c1.895,0,3.481-1.047,4.422-2.537c-0.667-0.356-1.335-0.697-2.007-1.066C45.654,58.4,45.61,58.372,45.559,58.347z"/>
	
		<linearGradient id="SVGID_17_" gradientUnits="userSpaceOnUse" x1="-837.4517" y1="709.2891" x2="-833.1171" y2="709.2891" gradientTransform="matrix(0.6219 -1.0778 -1.0778 -0.6219 1334.0698 -406.3021)">
		<stop  offset="0" style="stop-color:#64A7DE"/>
		<stop  offset="1" style="stop-color:#5887C5"/>
	</linearGradient>
	<path fill="url(#SVGID_17_)" d="M47.846,57.723c-0.705,0.344-1.468,0.559-2.288,0.624c0.052,0.025,0.096,0.054,0.147,0.081
		c0.672,0.369,1.34,0.71,2.007,1.066c0.295-0.465,0.502-0.954,0.642-1.498C48.186,57.902,48.016,57.815,47.846,57.723z"/>
	
		<radialGradient id="SVGID_18_" cx="-790.6147" cy="290.6846" r="4.3255" gradientTransform="matrix(1.2297 0 0 -1.2297 1015.5189 414.1635)" gradientUnits="userSpaceOnUse">
		<stop  offset="0" style="stop-color:#75C3F1"/>
		<stop  offset="0.2747" style="stop-color:#75C3F1"/>
		<stop  offset="0.3702" style="stop-color:#72BEEE"/>
		<stop  offset="0.9341" style="stop-color:#64A7DE"/>
		<stop  offset="1" style="stop-color:#64A7DE"/>
	</radialGradient>
	<path fill="url(#SVGID_18_)" d="M47.846,57.723c-0.705,0.344-1.468,0.559-2.288,0.624c0.052,0.025,0.096,0.054,0.147,0.081
		c0.672,0.369,1.34,0.71,2.007,1.066c0.295-0.465,0.502-0.954,0.642-1.498C48.186,57.902,48.016,57.815,47.846,57.723z"/>
	
		<linearGradient id="SVGID_19_" gradientUnits="userSpaceOnUse" x1="-837.4604" y1="716.3379" x2="-833.1415" y2="716.3379" gradientTransform="matrix(0.6219 -1.0778 -1.0778 -0.6219 1334.0698 -406.3021)">
		<stop  offset="0" style="stop-color:#64A7DE"/>
		<stop  offset="1" style="stop-color:#5887C5"/>
	</linearGradient>
	<path fill="url(#SVGID_19_)" d="M38.625,54.293c0.273,0.168,0.554,0.336,0.832,0.504c-0.07-0.146-0.183-0.266-0.242-0.417
		c0.27-0.432,0.62-0.797,1.007-1.124c-0.201-0.123-0.396-0.248-0.596-0.376C39.208,53.284,38.897,53.773,38.625,54.293z"/>
	
		<radialGradient id="SVGID_20_" cx="-790.6128" cy="290.6885" r="4.3215" gradientTransform="matrix(1.2297 0 0 -1.2297 1015.5189 414.1635)" gradientUnits="userSpaceOnUse">
		<stop  offset="0" style="stop-color:#75C3F1"/>
		<stop  offset="0.2747" style="stop-color:#75C3F1"/>
		<stop  offset="0.3702" style="stop-color:#72BEEE"/>
		<stop  offset="0.9341" style="stop-color:#64A7DE"/>
		<stop  offset="1" style="stop-color:#64A7DE"/>
	</radialGradient>
	<path fill="url(#SVGID_20_)" d="M38.625,54.293c0.273,0.168,0.554,0.336,0.832,0.504c-0.07-0.146-0.183-0.266-0.242-0.417
		c0.27-0.432,0.62-0.797,1.007-1.124c-0.201-0.123-0.396-0.248-0.596-0.376C39.208,53.284,38.897,53.773,38.625,54.293z"/>
	
		<radialGradient id="SVGID_21_" cx="-790.6162" cy="290.6826" r="4.3262" gradientTransform="matrix(1.2297 0 0 -1.2297 1015.5189 414.1635)" gradientUnits="userSpaceOnUse">
		<stop  offset="0" style="stop-color:#75C3F1"/>
		<stop  offset="0.2747" style="stop-color:#75C3F1"/>
		<stop  offset="0.3702" style="stop-color:#72BEEE"/>
		<stop  offset="0.9341" style="stop-color:#64A7DE"/>
		<stop  offset="1" style="stop-color:#64A7DE"/>
	</radialGradient>
	<path fill="url(#SVGID_21_)" d="M41.564,54.076c0.076-0.432,0.28-0.829,0.701-1.043c0.207-0.107,0.426-0.153,0.649-0.153
		c0.52,0,1.031,0.29,1.297,0.79c0.315,0.625,0.072,1.32-0.448,1.738c1.183,0.695,2.382,1.383,3.603,2.059
		c0.162,0.09,0.317,0.168,0.479,0.256c0.125-0.062,0.258-0.09,0.376-0.158c0.022-0.19,0.062-0.379,0.062-0.576
		c0-2.717-2.203-4.916-4.926-4.916c-1.205,0-2.286,0.459-3.136,1.184C40.662,53.529,41.118,53.801,41.564,54.076z"/>
	
		<linearGradient id="SVGID_22_" gradientUnits="userSpaceOnUse" x1="-651.6797" y1="398.1729" x2="-647.3557" y2="398.1729" gradientTransform="matrix(2.0967 0 0 -2.0967 1405.5956 889.746)">
		<stop  offset="0" style="stop-color:#94CFF4"/>
		<stop  offset="0.2747" style="stop-color:#94CFF4"/>
		<stop  offset="0.5854" style="stop-color:#7BBBE9"/>
		<stop  offset="0.9341" style="stop-color:#64A7DE"/>
		<stop  offset="1" style="stop-color:#64A7DE"/>
	</linearGradient>
	<path fill="url(#SVGID_22_)" d="M41.564,54.076c0.076-0.432,0.28-0.829,0.701-1.043c0.207-0.107,0.426-0.153,0.649-0.153
		c0.52,0,1.031,0.29,1.297,0.79c0.315,0.625,0.072,1.32-0.448,1.738c1.183,0.695,2.382,1.383,3.603,2.059
		c0.162,0.09,0.317,0.168,0.479,0.256c0.125-0.062,0.258-0.09,0.376-0.158c0.022-0.19,0.062-0.379,0.062-0.576
		c0-2.717-2.203-4.916-4.926-4.916c-1.205,0-2.286,0.459-3.136,1.184C40.662,53.529,41.118,53.801,41.564,54.076z"/>
	
		<radialGradient id="SVGID_23_" cx="-790.6167" cy="290.6816" r="4.3303" gradientTransform="matrix(1.2297 0 0 -1.2297 1015.5189 414.1635)" gradientUnits="userSpaceOnUse">
		<stop  offset="0" style="stop-color:#75C3F1"/>
		<stop  offset="0.2747" style="stop-color:#75C3F1"/>
		<stop  offset="0.3702" style="stop-color:#72BEEE"/>
		<stop  offset="0.9341" style="stop-color:#64A7DE"/>
		<stop  offset="1" style="stop-color:#64A7DE"/>
	</radialGradient>
	<path fill="url(#SVGID_23_)" d="M45.116,58.407c0.155,0,0.295-0.05,0.443-0.061c-2.098-1.153-4.123-2.343-6.101-3.55
		C40.485,56.915,42.603,58.407,45.116,58.407z"/>
	
		<linearGradient id="SVGID_24_" gradientUnits="userSpaceOnUse" x1="-651.6797" y1="397.3594" x2="-647.3546" y2="397.3594" gradientTransform="matrix(2.0967 0 0 -2.0967 1405.5956 889.746)">
		<stop  offset="0" style="stop-color:#94CFF4"/>
		<stop  offset="0.2747" style="stop-color:#94CFF4"/>
		<stop  offset="0.5854" style="stop-color:#7BBBE9"/>
		<stop  offset="0.9341" style="stop-color:#64A7DE"/>
		<stop  offset="1" style="stop-color:#64A7DE"/>
	</linearGradient>
	<path fill="url(#SVGID_24_)" d="M45.116,58.407c0.155,0,0.295-0.05,0.443-0.061c-2.098-1.153-4.123-2.343-6.101-3.55
		C40.485,56.915,42.603,58.407,45.116,58.407z"/>
	
		<linearGradient id="SVGID_25_" gradientUnits="userSpaceOnUse" x1="-837.4526" y1="712.6045" x2="-833.1197" y2="712.6045" gradientTransform="matrix(0.6219 -1.0778 -1.0778 -0.6219 1334.0698 -406.3021)">
		<stop  offset="0" style="stop-color:#64A7DE"/>
		<stop  offset="1" style="stop-color:#5887C5"/>
	</linearGradient>
	<path fill="url(#SVGID_25_)" d="M45.559,58.347c0.819-0.065,1.583-0.28,2.288-0.624c-0.162-0.088-0.317-0.166-0.479-0.256
		c-1.221-0.676-2.42-1.363-3.603-2.059c-0.072,0.059-0.09,0.166-0.175,0.21c-0.71,0.363-1.579,0.081-1.943-0.633
		c-0.155-0.294-0.135-0.608-0.081-0.909c-0.446-0.275-0.902-0.547-1.341-0.82c-0.387,0.327-0.738,0.692-1.007,1.124
		c0.059,0.151,0.172,0.271,0.242,0.417C41.436,56.004,43.461,57.193,45.559,58.347z"/>
	
		<radialGradient id="SVGID_26_" cx="-790.6167" cy="290.6826" r="4.3272" gradientTransform="matrix(1.2297 0 0 -1.2297 1015.5189 414.1635)" gradientUnits="userSpaceOnUse">
		<stop  offset="0" style="stop-color:#75C3F1"/>
		<stop  offset="0.2747" style="stop-color:#75C3F1"/>
		<stop  offset="0.3702" style="stop-color:#72BEEE"/>
		<stop  offset="0.9341" style="stop-color:#64A7DE"/>
		<stop  offset="1" style="stop-color:#64A7DE"/>
	</radialGradient>
	<path fill="url(#SVGID_26_)" d="M45.559,58.347c0.819-0.065,1.583-0.28,2.288-0.624c-0.162-0.088-0.317-0.166-0.479-0.256
		c-1.221-0.676-2.42-1.363-3.603-2.059c-0.072,0.059-0.09,0.166-0.175,0.21c-0.71,0.363-1.579,0.081-1.943-0.633
		c-0.155-0.294-0.135-0.608-0.081-0.909c-0.446-0.275-0.902-0.547-1.341-0.82c-0.387,0.327-0.738,0.692-1.007,1.124
		c0.059,0.151,0.172,0.271,0.242,0.417C41.436,56.004,43.461,57.193,45.559,58.347z"/>
	
		<linearGradient id="SVGID_27_" gradientUnits="userSpaceOnUse" x1="-651.6807" y1="397.7412" x2="-647.3531" y2="397.7412" gradientTransform="matrix(2.0967 0 0 -2.0967 1405.5956 889.746)">
		<stop  offset="0" style="stop-color:#94CFF4"/>
		<stop  offset="0.2747" style="stop-color:#94CFF4"/>
		<stop  offset="0.5854" style="stop-color:#7BBBE9"/>
		<stop  offset="0.9341" style="stop-color:#64A7DE"/>
		<stop  offset="1" style="stop-color:#64A7DE"/>
	</linearGradient>
	<path fill="url(#SVGID_27_)" d="M45.559,58.347c0.819-0.065,1.583-0.28,2.288-0.624c-0.162-0.088-0.317-0.166-0.479-0.256
		c-1.221-0.676-2.42-1.363-3.603-2.059c-0.072,0.059-0.09,0.166-0.175,0.21c-0.71,0.363-1.579,0.081-1.943-0.633
		c-0.155-0.294-0.135-0.608-0.081-0.909c-0.446-0.275-0.902-0.547-1.341-0.82c-0.387,0.327-0.738,0.692-1.007,1.124
		c0.059,0.151,0.172,0.271,0.242,0.417C41.436,56.004,43.461,57.193,45.559,58.347z"/>
	
		<radialGradient id="SVGID_28_" cx="-790.6177" cy="290.6895" r="4.3142" gradientTransform="matrix(1.2297 0 0 -1.2297 1015.5189 414.1635)" gradientUnits="userSpaceOnUse">
		<stop  offset="0" style="stop-color:#75C3F1"/>
		<stop  offset="0.2747" style="stop-color:#75C3F1"/>
		<stop  offset="0.3702" style="stop-color:#72BEEE"/>
		<stop  offset="0.9341" style="stop-color:#64A7DE"/>
		<stop  offset="1" style="stop-color:#64A7DE"/>
	</radialGradient>
	<path fill="url(#SVGID_28_)" d="M44.212,53.67c-0.266-0.5-0.777-0.79-1.297-0.79c-0.224,0-0.443,0.046-0.649,0.153
		c-0.421,0.214-0.625,0.611-0.701,1.043c0.73,0.444,1.454,0.893,2.199,1.332C44.284,54.99,44.527,54.295,44.212,53.67z"/>
	
		<linearGradient id="SVGID_29_" gradientUnits="userSpaceOnUse" x1="-651.6812" y1="398.5322" x2="-647.3505" y2="398.5322" gradientTransform="matrix(2.0967 0 0 -2.0967 1405.5956 889.746)">
		<stop  offset="0" style="stop-color:#94CFF4"/>
		<stop  offset="0.2747" style="stop-color:#94CFF4"/>
		<stop  offset="0.5854" style="stop-color:#7BBBE9"/>
		<stop  offset="0.9341" style="stop-color:#64A7DE"/>
		<stop  offset="1" style="stop-color:#64A7DE"/>
	</linearGradient>
	<path fill="url(#SVGID_29_)" d="M44.212,53.67c-0.266-0.5-0.777-0.79-1.297-0.79c-0.224,0-0.443,0.046-0.649,0.153
		c-0.421,0.214-0.625,0.611-0.701,1.043c0.73,0.444,1.454,0.893,2.199,1.332C44.284,54.99,44.527,54.295,44.212,53.67z"/>
	
		<linearGradient id="SVGID_30_" gradientUnits="userSpaceOnUse" x1="-1226.5596" y1="379.2285" x2="-1222.236" y2="379.2285" gradientTransform="matrix(0.5938 -0.3037 -0.243 -0.475 862.1047 -137.4381)">
		<stop  offset="0" style="stop-color:#FFFFFF"/>
		<stop  offset="1" style="stop-color:#73C0EF"/>
	</linearGradient>
	<path fill="url(#SVGID_30_)" d="M44.212,53.67c-0.266-0.5-0.777-0.79-1.297-0.79c-0.224,0-0.443,0.046-0.649,0.153
		c-0.421,0.214-0.625,0.611-0.701,1.043c0.73,0.444,1.454,0.893,2.199,1.332C44.284,54.99,44.527,54.295,44.212,53.67z"/>
	
		<linearGradient id="SVGID_31_" gradientUnits="userSpaceOnUse" x1="-837.4595" y1="713.7344" x2="-833.1385" y2="713.7344" gradientTransform="matrix(0.6219 -1.0778 -1.0778 -0.6219 1334.0698 -406.3021)">
		<stop  offset="0" style="stop-color:#64A7DE"/>
		<stop  offset="1" style="stop-color:#5887C5"/>
	</linearGradient>
	<path fill="url(#SVGID_31_)" d="M41.646,54.985c0.364,0.714,1.232,0.996,1.943,0.633c0.085-0.044,0.103-0.151,0.175-0.21
		c-0.746-0.439-1.469-0.888-2.199-1.332C41.511,54.377,41.491,54.691,41.646,54.985z"/>
	
		<radialGradient id="SVGID_32_" cx="-790.6177" cy="290.6865" r="4.3188" gradientTransform="matrix(1.2297 0 0 -1.2297 1015.5189 414.1635)" gradientUnits="userSpaceOnUse">
		<stop  offset="0" style="stop-color:#75C3F1"/>
		<stop  offset="0.2747" style="stop-color:#75C3F1"/>
		<stop  offset="0.3702" style="stop-color:#72BEEE"/>
		<stop  offset="0.9341" style="stop-color:#64A7DE"/>
		<stop  offset="1" style="stop-color:#64A7DE"/>
	</radialGradient>
	<path fill="url(#SVGID_32_)" d="M41.646,54.985c0.364,0.714,1.232,0.996,1.943,0.633c0.085-0.044,0.103-0.151,0.175-0.21
		c-0.746-0.439-1.469-0.888-2.199-1.332C41.511,54.377,41.491,54.691,41.646,54.985z"/>
	
		<linearGradient id="SVGID_33_" gradientUnits="userSpaceOnUse" x1="-651.6782" y1="398.1592" x2="-647.3581" y2="398.1592" gradientTransform="matrix(2.0967 0 0 -2.0967 1405.5956 889.746)">
		<stop  offset="0" style="stop-color:#94CFF4"/>
		<stop  offset="0.2747" style="stop-color:#94CFF4"/>
		<stop  offset="0.5854" style="stop-color:#7BBBE9"/>
		<stop  offset="0.9341" style="stop-color:#64A7DE"/>
		<stop  offset="1" style="stop-color:#64A7DE"/>
	</linearGradient>
	<path fill="url(#SVGID_33_)" d="M41.646,54.985c0.364,0.714,1.232,0.996,1.943,0.633c0.085-0.044,0.103-0.151,0.175-0.21
		c-0.746-0.439-1.469-0.888-2.199-1.332C41.511,54.377,41.491,54.691,41.646,54.985z"/>
	
		<linearGradient id="SVGID_34_" gradientUnits="userSpaceOnUse" x1="-1226.5571" y1="378.5576" x2="-1222.2377" y2="378.5576" gradientTransform="matrix(0.5938 -0.3037 -0.243 -0.475 862.1047 -137.4381)">
		<stop  offset="0" style="stop-color:#FFFFFF"/>
		<stop  offset="1" style="stop-color:#73C0EF"/>
	</linearGradient>
	<path fill="url(#SVGID_34_)" d="M41.646,54.985c0.364,0.714,1.232,0.996,1.943,0.633c0.085-0.044,0.103-0.151,0.175-0.21
		c-0.746-0.439-1.469-0.888-2.199-1.332C41.511,54.377,41.491,54.691,41.646,54.985z"/>
	
		<radialGradient id="SVGID_35_" cx="-1103.3203" cy="62.2012" r="4.3245" gradientTransform="matrix(0.6218 0 0 -0.6218 745.4668 75.4159)" gradientUnits="userSpaceOnUse">
		<stop  offset="0" style="stop-color:#64A7DE"/>
		<stop  offset="1" style="stop-color:#333B8B"/>
	</radialGradient>
	<path fill="url(#SVGID_35_)" d="M61.838,37.127c-0.258,0.14-0.572,0.162-0.867,0.229c0.181,0.118,0.388,0.225,0.572,0.341
		c-0.188-0.116-0.392-0.221-0.58-0.335c-0.202,0.044-0.38,0.158-0.598,0.158c-0.602,0-1.15-0.188-1.619-0.489
		c-0.62,0.161-1.24,0.336-1.853,0.513c0.347,1.081,1.328,1.881,2.523,1.881c1.491,0,2.694-1.205,2.694-2.69
		c0-0.171-0.066-0.319-0.097-0.481c-0.088,0.019-0.173,0.041-0.258,0.059c0.044,0.179,0.11,0.351,0.11,0.541
		C61.867,36.944,61.849,37.031,61.838,37.127z"/>
	
		<radialGradient id="SVGID_36_" cx="-1103.3242" cy="62.2002" r="4.3222" gradientTransform="matrix(0.6218 0 0 -0.6218 745.4668 75.4159)" gradientUnits="userSpaceOnUse">
		<stop  offset="0" style="stop-color:#64A7DE"/>
		<stop  offset="1" style="stop-color:#333B8B"/>
	</radialGradient>
	<path fill="url(#SVGID_36_)" d="M57.757,35.438c0.428-0.537,1.048-0.917,1.778-0.917c0.96,0,1.775,0.582,2.133,1.408
		c0.089-0.021,0.178-0.043,0.266-0.06c-0.365-1.053-1.336-1.819-2.517-1.819c-0.885,0-1.631,0.454-2.117,1.111
		C57.451,35.256,57.605,35.347,57.757,35.438z"/>
	
		<radialGradient id="SVGID_37_" cx="-1103.3306" cy="62.1973" r="4.3268" gradientTransform="matrix(0.6218 0 0 -0.6218 745.4668 75.4159)" gradientUnits="userSpaceOnUse">
		<stop  offset="0" style="stop-color:#64A7DE"/>
		<stop  offset="1" style="stop-color:#333B8B"/>
	</radialGradient>
	<path fill="url(#SVGID_37_)" d="M56.801,37.092c0.484-0.131,0.956-0.275,1.443-0.398c0.029-0.008,0.059-0.013,0.081-0.017
		c-0.317-0.301-0.587-0.646-0.753-1.061c0.037-0.061,0.111-0.09,0.155-0.147c-0.155-0.088-0.303-0.179-0.458-0.266
		c-0.316,0.439-0.538,0.95-0.538,1.533C56.731,36.863,56.783,36.97,56.801,37.092z"/>
	
		<linearGradient id="SVGID_38_" gradientUnits="userSpaceOnUse" x1="-835.1528" y1="707.707" x2="-831.4027" y2="707.707" gradientTransform="matrix(0.6219 -1.0778 -1.0778 -0.6219 1334.0698 -406.3021)">
		<stop  offset="0" style="stop-color:#64A7DE"/>
		<stop  offset="1" style="stop-color:#5887C5"/>
	</linearGradient>
	<path fill="url(#SVGID_38_)" d="M61.543,37.697c-0.185-0.116-0.392-0.223-0.572-0.341c-0.004,0-0.004,0.004-0.004,0.004
		C61.151,37.476,61.354,37.581,61.543,37.697z"/>
	
		<radialGradient id="SVGID_39_" cx="-1103.3247" cy="62.2119" r="4.3359" gradientTransform="matrix(0.6218 0 0 -0.6218 745.4668 75.4159)" gradientUnits="userSpaceOnUse">
		<stop  offset="0" style="stop-color:#64A7DE"/>
		<stop  offset="1" style="stop-color:#333B8B"/>
	</radialGradient>
	<path fill="url(#SVGID_39_)" d="M61.543,37.697c-0.185-0.116-0.392-0.223-0.572-0.341c-0.004,0-0.004,0.004-0.004,0.004
		C61.151,37.476,61.354,37.581,61.543,37.697z"/>
	
		<linearGradient id="SVGID_40_" gradientUnits="userSpaceOnUse" x1="-838.0503" y1="711.1982" x2="-833.5765" y2="711.1982" gradientTransform="matrix(0.6219 -1.0778 -1.0778 -0.6219 1334.0698 -406.3021)">
		<stop  offset="0" style="stop-color:#64A7DE"/>
		<stop  offset="1" style="stop-color:#5887C5"/>
	</linearGradient>
	<path fill="url(#SVGID_40_)" d="M57.728,35.468c0.007-0.013,0.022-0.019,0.029-0.03c-0.151-0.092-0.306-0.183-0.457-0.276
		c-0.012,0.013-0.019,0.027-0.03,0.041C57.425,35.289,57.572,35.38,57.728,35.468z"/>
	
		<radialGradient id="SVGID_41_" cx="-1103.334" cy="62.2109" r="4.3112" gradientTransform="matrix(0.6218 0 0 -0.6218 745.4668 75.4159)" gradientUnits="userSpaceOnUse">
		<stop  offset="0" style="stop-color:#64A7DE"/>
		<stop  offset="1" style="stop-color:#333B8B"/>
	</radialGradient>
	<path fill="url(#SVGID_41_)" d="M57.728,35.468c0.007-0.013,0.022-0.019,0.029-0.03c-0.151-0.092-0.306-0.183-0.457-0.276
		c-0.012,0.013-0.019,0.027-0.03,0.041C57.425,35.289,57.572,35.38,57.728,35.468z"/>
	
		<linearGradient id="SVGID_42_" gradientUnits="userSpaceOnUse" x1="-370.3989" y1="580.5264" x2="-366.0634" y2="580.5264" gradientTransform="matrix(-5.6938 1.4141 1.5154 6.0159 -2931.0503 -2931.509)">
		<stop  offset="0" style="stop-color:#4674B7"/>
		<stop  offset="1" style="stop-color:#5887C5"/>
	</linearGradient>
	<path fill="url(#SVGID_42_)" d="M58.746,37.031c-0.155-0.1-0.284-0.227-0.421-0.354c-0.022,0.003-0.052,0.009-0.081,0.017
		c-0.487,0.124-0.959,0.268-1.443,0.398c0.019,0.155,0.041,0.306,0.093,0.452C57.506,37.367,58.126,37.191,58.746,37.031z"/>
	
		<radialGradient id="SVGID_43_" cx="-1103.3267" cy="62.2002" r="4.3243" gradientTransform="matrix(0.6218 0 0 -0.6218 745.4668 75.4159)" gradientUnits="userSpaceOnUse">
		<stop  offset="0" style="stop-color:#64A7DE"/>
		<stop  offset="1" style="stop-color:#333B8B"/>
	</radialGradient>
	<path fill="url(#SVGID_43_)" d="M58.746,37.031c-0.155-0.1-0.284-0.227-0.421-0.354c-0.022,0.003-0.052,0.009-0.081,0.017
		c-0.487,0.124-0.959,0.268-1.443,0.398c0.019,0.155,0.041,0.306,0.093,0.452C57.506,37.367,58.126,37.191,58.746,37.031z"/>
	
		<linearGradient id="SVGID_44_" gradientUnits="userSpaceOnUse" x1="-370.395" y1="580.5322" x2="-366.0472" y2="580.5322" gradientTransform="matrix(-5.6938 1.4141 1.5154 6.0159 -2931.0503 -2931.509)">
		<stop  offset="0" style="stop-color:#4674B7"/>
		<stop  offset="1" style="stop-color:#5887C5"/>
	</linearGradient>
	<path fill="url(#SVGID_44_)" d="M61.668,35.93c0.052,0.118,0.056,0.254,0.089,0.383c0.085-0.018,0.17-0.041,0.258-0.059
		c-0.025-0.129-0.036-0.262-0.081-0.384C61.846,35.887,61.757,35.909,61.668,35.93z"/>
	
		<radialGradient id="SVGID_45_" cx="-1103.3521" cy="62.2061" r="4.3536" gradientTransform="matrix(0.6218 0 0 -0.6218 745.4668 75.4159)" gradientUnits="userSpaceOnUse">
		<stop  offset="0" style="stop-color:#64A7DE"/>
		<stop  offset="1" style="stop-color:#333B8B"/>
	</radialGradient>
	<path fill="url(#SVGID_45_)" d="M61.668,35.93c0.052,0.118,0.056,0.254,0.089,0.383c0.085-0.018,0.17-0.041,0.258-0.059
		c-0.025-0.129-0.036-0.262-0.081-0.384C61.846,35.887,61.757,35.909,61.668,35.93z"/>
	
		<radialGradient id="SVGID_46_" cx="-1103.3262" cy="62.2002" r="4.3257" gradientTransform="matrix(0.6218 0 0 -0.6218 745.4668 75.4159)" gradientUnits="userSpaceOnUse">
		<stop  offset="0" style="stop-color:#64A7DE"/>
		<stop  offset="1" style="stop-color:#333B8B"/>
	</radialGradient>
	<path fill="url(#SVGID_46_)" d="M59.373,36.857c-0.207,0.054-0.417,0.12-0.627,0.173c0.469,0.301,1.018,0.489,1.619,0.489
		c0.218,0,0.396-0.114,0.598-0.158c-0.343-0.214-0.712-0.416-1.066-0.624C59.72,36.782,59.55,36.812,59.373,36.857z"/>
	
		<linearGradient id="SVGID_47_" gradientUnits="userSpaceOnUse" x1="-861.1182" y1="243.3213" x2="-856.7947" y2="243.3213" gradientTransform="matrix(0.9932 0 0 -0.9932 912.8312 278.7957)">
		<stop  offset="0" style="stop-color:#6289C5"/>
		<stop  offset="0.2747" style="stop-color:#6289C5"/>
		<stop  offset="0.707" style="stop-color:#41539D"/>
		<stop  offset="0.9341" style="stop-color:#333B8B"/>
		<stop  offset="1" style="stop-color:#333B8B"/>
	</linearGradient>
	<path fill="url(#SVGID_47_)" d="M59.373,36.857c-0.207,0.054-0.417,0.12-0.627,0.173c0.469,0.301,1.018,0.489,1.619,0.489
		c0.218,0,0.396-0.114,0.598-0.158c-0.343-0.214-0.712-0.416-1.066-0.624C59.72,36.782,59.55,36.812,59.373,36.857z"/>
	
		<radialGradient id="SVGID_48_" cx="-1103.3203" cy="62.2012" r="4.3252" gradientTransform="matrix(0.6218 0 0 -0.6218 745.4668 75.4159)" gradientUnits="userSpaceOnUse">
		<stop  offset="0" style="stop-color:#64A7DE"/>
		<stop  offset="1" style="stop-color:#333B8B"/>
	</radialGradient>
	<path fill="url(#SVGID_48_)" d="M60.971,37.355c0.295-0.066,0.609-0.088,0.867-0.229c0.011-0.096,0.029-0.183,0.029-0.273
		c0-0.19-0.066-0.361-0.11-0.541c-0.605,0.135-1.214,0.266-1.83,0.419C60.263,36.944,60.635,37.145,60.971,37.355z"/>
	
		<linearGradient id="SVGID_49_" gradientUnits="userSpaceOnUse" x1="-861.1143" y1="243.6172" x2="-856.792" y2="243.6172" gradientTransform="matrix(0.9932 0 0 -0.9932 912.8312 278.7957)">
		<stop  offset="0" style="stop-color:#6289C5"/>
		<stop  offset="0.2747" style="stop-color:#6289C5"/>
		<stop  offset="0.707" style="stop-color:#41539D"/>
		<stop  offset="0.9341" style="stop-color:#333B8B"/>
		<stop  offset="1" style="stop-color:#333B8B"/>
	</linearGradient>
	<path fill="url(#SVGID_49_)" d="M60.971,37.355c0.295-0.066,0.609-0.088,0.867-0.229c0.011-0.096,0.029-0.183,0.029-0.273
		c0-0.19-0.066-0.361-0.11-0.541c-0.605,0.135-1.214,0.266-1.83,0.419C60.263,36.944,60.635,37.145,60.971,37.355z"/>
	
		<radialGradient id="SVGID_50_" cx="-1103.3271" cy="62.2051" r="4.3256" gradientTransform="matrix(0.6218 0 0 -0.6218 745.4668 75.4159)" gradientUnits="userSpaceOnUse">
		<stop  offset="0" style="stop-color:#64A7DE"/>
		<stop  offset="1" style="stop-color:#333B8B"/>
	</radialGradient>
	<path fill="url(#SVGID_50_)" d="M59.417,36.431c0.761-0.181,1.506-0.345,2.251-0.501c-0.357-0.827-1.173-1.408-2.133-1.408
		c-0.73,0-1.351,0.38-1.778,0.917C58.311,35.772,58.879,36.094,59.417,36.431z M59.934,35.282c0.178,0.334,0.045,0.751-0.299,0.917
		c-0.324,0.177-0.741,0.044-0.911-0.297c-0.177-0.332-0.044-0.753,0.295-0.921c0.097-0.053,0.207-0.074,0.311-0.074
		C59.576,34.907,59.812,35.046,59.934,35.282z"/>
	
		<linearGradient id="SVGID_51_" gradientUnits="userSpaceOnUse" x1="-861.1187" y1="244.9844" x2="-856.7967" y2="244.9844" gradientTransform="matrix(0.9932 0 0 -0.9932 912.8312 278.7957)">
		<stop  offset="0" style="stop-color:#6289C5"/>
		<stop  offset="0.2747" style="stop-color:#6289C5"/>
		<stop  offset="0.707" style="stop-color:#41539D"/>
		<stop  offset="0.9341" style="stop-color:#333B8B"/>
		<stop  offset="1" style="stop-color:#333B8B"/>
	</linearGradient>
	<path fill="url(#SVGID_51_)" d="M59.417,36.431c0.761-0.181,1.506-0.345,2.251-0.501c-0.357-0.827-1.173-1.408-2.133-1.408
		c-0.73,0-1.351,0.38-1.778,0.917C58.311,35.772,58.879,36.094,59.417,36.431z M59.934,35.282c0.178,0.334,0.045,0.751-0.299,0.917
		c-0.324,0.177-0.741,0.044-0.911-0.297c-0.177-0.332-0.044-0.753,0.295-0.921c0.097-0.053,0.207-0.074,0.311-0.074
		C59.576,34.907,59.812,35.046,59.934,35.282z"/>
	
		<radialGradient id="SVGID_52_" cx="-1103.3247" cy="62.2002" r="4.3265" gradientTransform="matrix(0.6218 0 0 -0.6218 745.4668 75.4159)" gradientUnits="userSpaceOnUse">
		<stop  offset="0" style="stop-color:#64A7DE"/>
		<stop  offset="1" style="stop-color:#333B8B"/>
	</radialGradient>
	<path fill="url(#SVGID_52_)" d="M58.325,36.677c0.361-0.092,0.701-0.151,1.062-0.24c-0.55-0.326-1.104-0.647-1.66-0.968
		c-0.044,0.057-0.118,0.086-0.155,0.147C57.738,36.031,58.008,36.376,58.325,36.677z"/>
	
		<linearGradient id="SVGID_53_" gradientUnits="userSpaceOnUse" x1="-861.1162" y1="244.3848" x2="-856.7944" y2="244.3848" gradientTransform="matrix(0.9932 0 0 -0.9932 912.8312 278.7957)">
		<stop  offset="0" style="stop-color:#6289C5"/>
		<stop  offset="0.2747" style="stop-color:#6289C5"/>
		<stop  offset="0.707" style="stop-color:#41539D"/>
		<stop  offset="0.9341" style="stop-color:#333B8B"/>
		<stop  offset="1" style="stop-color:#333B8B"/>
	</linearGradient>
	<path fill="url(#SVGID_53_)" d="M58.325,36.677c0.361-0.092,0.701-0.151,1.062-0.24c-0.55-0.326-1.104-0.647-1.66-0.968
		c-0.044,0.057-0.118,0.086-0.155,0.147C57.738,36.031,58.008,36.376,58.325,36.677z"/>
	
		<linearGradient id="SVGID_54_" gradientUnits="userSpaceOnUse" x1="-837.2075" y1="710.209" x2="-832.9442" y2="710.209" gradientTransform="matrix(0.6219 -1.0778 -1.0778 -0.6219 1334.0698 -406.3021)">
		<stop  offset="0" style="stop-color:#64A7DE"/>
		<stop  offset="1" style="stop-color:#5887C5"/>
	</linearGradient>
	<path fill="url(#SVGID_54_)" d="M59.388,36.437c0.011-0.001,0.022-0.003,0.029-0.005c-0.538-0.337-1.106-0.659-1.66-0.993
		c-0.007,0.011-0.022,0.017-0.029,0.03C58.284,35.789,58.838,36.11,59.388,36.437z"/>
	
		<radialGradient id="SVGID_55_" cx="-1103.3286" cy="62.2012" r="4.3273" gradientTransform="matrix(0.6218 0 0 -0.6218 745.4668 75.4159)" gradientUnits="userSpaceOnUse">
		<stop  offset="0" style="stop-color:#64A7DE"/>
		<stop  offset="1" style="stop-color:#333B8B"/>
	</radialGradient>
	<path fill="url(#SVGID_55_)" d="M59.388,36.437c0.011-0.001,0.022-0.003,0.029-0.005c-0.538-0.337-1.106-0.659-1.66-0.993
		c-0.007,0.011-0.022,0.017-0.029,0.03C58.284,35.789,58.838,36.11,59.388,36.437z"/>
	
		<linearGradient id="SVGID_56_" gradientUnits="userSpaceOnUse" x1="-861.1162" y1="244.5215" x2="-856.7979" y2="244.5215" gradientTransform="matrix(0.9932 0 0 -0.9932 912.8312 278.7957)">
		<stop  offset="0" style="stop-color:#6289C5"/>
		<stop  offset="0.2747" style="stop-color:#6289C5"/>
		<stop  offset="0.707" style="stop-color:#41539D"/>
		<stop  offset="0.9341" style="stop-color:#333B8B"/>
		<stop  offset="1" style="stop-color:#333B8B"/>
	</linearGradient>
	<path fill="url(#SVGID_56_)" d="M59.388,36.437c0.011-0.001,0.022-0.003,0.029-0.005c-0.538-0.337-1.106-0.659-1.66-0.993
		c-0.007,0.011-0.022,0.017-0.029,0.03C58.284,35.789,58.838,36.11,59.388,36.437z"/>
	
		<linearGradient id="SVGID_57_" gradientUnits="userSpaceOnUse" x1="-840.1567" y1="708.4727" x2="-835.1566" y2="708.4727" gradientTransform="matrix(0.6219 -1.0778 -1.0778 -0.6219 1334.0698 -406.3021)">
		<stop  offset="0" style="stop-color:#64A7DE"/>
		<stop  offset="1" style="stop-color:#5887C5"/>
	</linearGradient>
	<path fill="url(#SVGID_57_)" d="M60.963,37.361c0,0,0.004-0.006,0.008-0.006c-0.336-0.21-0.708-0.411-1.044-0.624
		c-0.012,0.002-0.019,0.003-0.03,0.005C60.251,36.946,60.62,37.147,60.963,37.361z"/>
	
		<radialGradient id="SVGID_58_" cx="-1103.333" cy="62.1982" r="4.3359" gradientTransform="matrix(0.6218 0 0 -0.6218 745.4668 75.4159)" gradientUnits="userSpaceOnUse">
		<stop  offset="0" style="stop-color:#64A7DE"/>
		<stop  offset="1" style="stop-color:#333B8B"/>
	</radialGradient>
	<path fill="url(#SVGID_58_)" d="M60.963,37.361c0,0,0.004-0.006,0.008-0.006c-0.336-0.21-0.708-0.411-1.044-0.624
		c-0.012,0.002-0.019,0.003-0.03,0.005C60.251,36.946,60.62,37.147,60.963,37.361z"/>
	
		<linearGradient id="SVGID_59_" gradientUnits="userSpaceOnUse" x1="-861.1182" y1="243.4043" x2="-856.7982" y2="243.4043" gradientTransform="matrix(0.9932 0 0 -0.9932 912.8312 278.7957)">
		<stop  offset="0" style="stop-color:#6289C5"/>
		<stop  offset="0.2747" style="stop-color:#6289C5"/>
		<stop  offset="0.707" style="stop-color:#41539D"/>
		<stop  offset="0.9341" style="stop-color:#333B8B"/>
		<stop  offset="1" style="stop-color:#333B8B"/>
	</linearGradient>
	<path fill="url(#SVGID_59_)" d="M60.963,37.361c0,0,0.004-0.006,0.008-0.006c-0.336-0.21-0.708-0.411-1.044-0.624
		c-0.012,0.002-0.019,0.003-0.03,0.005C60.251,36.946,60.62,37.147,60.963,37.361z"/>
	
		<linearGradient id="SVGID_60_" gradientUnits="userSpaceOnUse" x1="-370.3999" y1="580.5225" x2="-366.0884" y2="580.5225" gradientTransform="matrix(-5.6938 1.4141 1.5154 6.0159 -2931.0503 -2931.509)">
		<stop  offset="0" style="stop-color:#4674B7"/>
		<stop  offset="1" style="stop-color:#5887C5"/>
	</linearGradient>
	<path fill="url(#SVGID_60_)" d="M59.373,36.857c0.177-0.046,0.347-0.076,0.523-0.12c-0.162-0.102-0.339-0.197-0.509-0.301
		c-0.361,0.089-0.701,0.148-1.062,0.24c0.137,0.127,0.266,0.254,0.421,0.354C58.956,36.978,59.166,36.911,59.373,36.857z"/>
	
		<radialGradient id="SVGID_61_" cx="-1103.3301" cy="62.2012" r="4.3227" gradientTransform="matrix(0.6218 0 0 -0.6218 745.4668 75.4159)" gradientUnits="userSpaceOnUse">
		<stop  offset="0" style="stop-color:#64A7DE"/>
		<stop  offset="1" style="stop-color:#333B8B"/>
	</radialGradient>
	<path fill="url(#SVGID_61_)" d="M59.373,36.857c0.177-0.046,0.347-0.076,0.523-0.12c-0.162-0.102-0.339-0.197-0.509-0.301
		c-0.361,0.089-0.701,0.148-1.062,0.24c0.137,0.127,0.266,0.254,0.421,0.354C58.956,36.978,59.166,36.911,59.373,36.857z"/>
	
		<linearGradient id="SVGID_62_" gradientUnits="userSpaceOnUse" x1="-861.1191" y1="243.7188" x2="-856.7976" y2="243.7188" gradientTransform="matrix(0.9932 0 0 -0.9932 912.8312 278.7957)">
		<stop  offset="0" style="stop-color:#6289C5"/>
		<stop  offset="0.2747" style="stop-color:#6289C5"/>
		<stop  offset="0.707" style="stop-color:#41539D"/>
		<stop  offset="0.9341" style="stop-color:#333B8B"/>
		<stop  offset="1" style="stop-color:#333B8B"/>
	</linearGradient>
	<path fill="url(#SVGID_62_)" d="M59.373,36.857c0.177-0.046,0.347-0.076,0.523-0.12c-0.162-0.102-0.339-0.197-0.509-0.301
		c-0.361,0.089-0.701,0.148-1.062,0.24c0.137,0.127,0.266,0.254,0.421,0.354C58.956,36.978,59.166,36.911,59.373,36.857z"/>
	
		<linearGradient id="SVGID_63_" gradientUnits="userSpaceOnUse" x1="-370.397" y1="580.5273" x2="-366.0583" y2="580.5273" gradientTransform="matrix(-5.6938 1.4141 1.5154 6.0159 -2931.0503 -2931.509)">
		<stop  offset="0" style="stop-color:#4674B7"/>
		<stop  offset="1" style="stop-color:#5887C5"/>
	</linearGradient>
	<path fill="url(#SVGID_63_)" d="M59.417,36.431c0.166,0.102,0.347,0.198,0.51,0.301c0.616-0.153,1.225-0.284,1.83-0.419
		c-0.033-0.129-0.037-0.266-0.089-0.383C60.923,36.086,60.178,36.25,59.417,36.431z"/>
	
		<radialGradient id="SVGID_64_" cx="-1103.3286" cy="62.2002" r="4.3322" gradientTransform="matrix(0.6218 0 0 -0.6218 745.4668 75.4159)" gradientUnits="userSpaceOnUse">
		<stop  offset="0" style="stop-color:#64A7DE"/>
		<stop  offset="1" style="stop-color:#333B8B"/>
	</radialGradient>
	<path fill="url(#SVGID_64_)" d="M59.417,36.431c0.166,0.102,0.347,0.198,0.51,0.301c0.616-0.153,1.225-0.284,1.83-0.419
		c-0.033-0.129-0.037-0.266-0.089-0.383C60.923,36.086,60.178,36.25,59.417,36.431z"/>
	
		<linearGradient id="SVGID_65_" gradientUnits="userSpaceOnUse" x1="-861.1196" y1="244.125" x2="-856.7935" y2="244.125" gradientTransform="matrix(0.9932 0 0 -0.9932 912.8312 278.7957)">
		<stop  offset="0" style="stop-color:#6289C5"/>
		<stop  offset="0.2747" style="stop-color:#6289C5"/>
		<stop  offset="0.707" style="stop-color:#41539D"/>
		<stop  offset="0.9341" style="stop-color:#333B8B"/>
		<stop  offset="1" style="stop-color:#333B8B"/>
	</linearGradient>
	<path fill="url(#SVGID_65_)" d="M59.417,36.431c0.166,0.102,0.347,0.198,0.51,0.301c0.616-0.153,1.225-0.284,1.83-0.419
		c-0.033-0.129-0.037-0.266-0.089-0.383C60.923,36.086,60.178,36.25,59.417,36.431z"/>
	
		<linearGradient id="SVGID_66_" gradientUnits="userSpaceOnUse" x1="-837.3564" y1="709.1982" x2="-833.0563" y2="709.1982" gradientTransform="matrix(0.6219 -1.0778 -1.0778 -0.6219 1334.0698 -406.3021)">
		<stop  offset="0" style="stop-color:#64A7DE"/>
		<stop  offset="1" style="stop-color:#5887C5"/>
	</linearGradient>
	<path fill="url(#SVGID_66_)" d="M59.896,36.737c0.012-0.002,0.019-0.003,0.03-0.005c-0.163-0.103-0.344-0.199-0.51-0.301
		c-0.007,0.002-0.019,0.004-0.029,0.005C59.558,36.54,59.734,36.636,59.896,36.737z"/>
	
		<linearGradient id="SVGID_67_" gradientUnits="userSpaceOnUse" x1="-370.397" y1="580.5234" x2="-366.0359" y2="580.5234" gradientTransform="matrix(-5.6938 1.4141 1.5154 6.0159 -2931.0503 -2931.509)">
		<stop  offset="0" style="stop-color:#4674B7"/>
		<stop  offset="1" style="stop-color:#5887C5"/>
	</linearGradient>
	<path fill="url(#SVGID_67_)" d="M59.896,36.737c0.012-0.002,0.019-0.003,0.03-0.005c-0.163-0.103-0.344-0.199-0.51-0.301
		c-0.007,0.002-0.019,0.004-0.029,0.005C59.558,36.54,59.734,36.636,59.896,36.737z"/>
	
		<radialGradient id="SVGID_68_" cx="-1103.3247" cy="62.2002" r="4.347" gradientTransform="matrix(0.6218 0 0 -0.6218 745.4668 75.4159)" gradientUnits="userSpaceOnUse">
		<stop  offset="0" style="stop-color:#64A7DE"/>
		<stop  offset="1" style="stop-color:#333B8B"/>
	</radialGradient>
	<path fill="url(#SVGID_68_)" d="M59.896,36.737c0.012-0.002,0.019-0.003,0.03-0.005c-0.163-0.103-0.344-0.199-0.51-0.301
		c-0.007,0.002-0.019,0.004-0.029,0.005C59.558,36.54,59.734,36.636,59.896,36.737z"/>
	
		<linearGradient id="SVGID_69_" gradientUnits="userSpaceOnUse" x1="-861.124" y1="243.8691" x2="-856.7845" y2="243.8691" gradientTransform="matrix(0.9932 0 0 -0.9932 912.8312 278.7957)">
		<stop  offset="0" style="stop-color:#6289C5"/>
		<stop  offset="0.2747" style="stop-color:#6289C5"/>
		<stop  offset="0.707" style="stop-color:#41539D"/>
		<stop  offset="0.9341" style="stop-color:#333B8B"/>
		<stop  offset="1" style="stop-color:#333B8B"/>
	</linearGradient>
	<path fill="url(#SVGID_69_)" d="M59.896,36.737c0.012-0.002,0.019-0.003,0.03-0.005c-0.163-0.103-0.344-0.199-0.51-0.301
		c-0.007,0.002-0.019,0.004-0.029,0.005C59.558,36.54,59.734,36.636,59.896,36.737z"/>
	
		<radialGradient id="SVGID_70_" cx="-1103.3252" cy="62.2012" r="4.3224" gradientTransform="matrix(0.6218 0 0 -0.6218 745.4668 75.4159)" gradientUnits="userSpaceOnUse">
		<stop  offset="0" style="stop-color:#64A7DE"/>
		<stop  offset="1" style="stop-color:#333B8B"/>
	</radialGradient>
	<path fill="url(#SVGID_70_)" d="M58.724,35.902c0.17,0.341,0.587,0.474,0.911,0.297c0.344-0.166,0.477-0.583,0.299-0.917
		c-0.121-0.236-0.357-0.375-0.604-0.375c-0.104,0-0.214,0.021-0.311,0.074C58.68,35.149,58.547,35.57,58.724,35.902z"/>
	
		<linearGradient id="SVGID_71_" gradientUnits="userSpaceOnUse" x1="-861.1138" y1="244.8682" x2="-856.801" y2="244.8682" gradientTransform="matrix(0.9932 0 0 -0.9932 912.8312 278.7957)">
		<stop  offset="0" style="stop-color:#6289C5"/>
		<stop  offset="0.2747" style="stop-color:#6289C5"/>
		<stop  offset="0.707" style="stop-color:#41539D"/>
		<stop  offset="0.9341" style="stop-color:#333B8B"/>
		<stop  offset="1" style="stop-color:#333B8B"/>
	</linearGradient>
	<path fill="url(#SVGID_71_)" d="M58.724,35.902c0.17,0.341,0.587,0.474,0.911,0.297c0.344-0.166,0.477-0.583,0.299-0.917
		c-0.121-0.236-0.357-0.375-0.604-0.375c-0.104,0-0.214,0.021-0.311,0.074C58.68,35.149,58.547,35.57,58.724,35.902z"/>
	
		<linearGradient id="SVGID_72_" gradientUnits="userSpaceOnUse" x1="-2042.5205" y1="214.7598" x2="-2038.1963" y2="214.7598" gradientTransform="matrix(0.28 -0.1432 -0.1145 -0.224 655.2196 -208.4856)">
		<stop  offset="0" style="stop-color:#9CB4DD"/>
		<stop  offset="1" style="stop-color:#5263A9"/>
	</linearGradient>
	<path fill="url(#SVGID_72_)" d="M58.724,35.902c0.17,0.341,0.587,0.474,0.911,0.297c0.344-0.166,0.477-0.583,0.299-0.917
		c-0.121-0.236-0.357-0.375-0.604-0.375c-0.104,0-0.214,0.021-0.311,0.074C58.68,35.149,58.547,35.57,58.724,35.902z"/>
</g>
</svg>
