<?xml version="1.0" encoding="utf-8"?>
<!-- Generator: Adobe Illustrator 18.1.0, SVG Export Plug-In . SVG Version: 6.00 Build 0)  -->
<svg version="1.1" id="Layer_1" xmlns="http://www.w3.org/2000/svg" xmlns:xlink="http://www.w3.org/1999/xlink" x="0px" y="0px"
	 viewBox="0 0 1000 1000" enable-background="new 0 0 1000 1000" xml:space="preserve">
<g>
	<path fill="#ADB5BC" d="M757.5,651.5c-1,0.1-2,0.3-3.1,0.4c-10.5,1.4-20.5,3.2-29.6,5c-1.2,0.2-2.3,0.5-3.5,0.7
		c-1.3,0.3-2.6,0.5-3.9,0.8c-61.2,85-162.5,139-274.9,134.7c-86.3-3.3-166.2-40-224.8-103.3c-58.5-63.1-88.9-145.2-85.6-231.1
		c3.3-85.9,39.9-165.4,103-223.9c63.3-58.7,145.7-89.1,232.1-85.8c8.5,0.3,17.5,1.1,27.4,2.3l0.8-5.1c-20.6-4.3-41.4-6.9-61.8-7.6
		C229.8,130.5,57.5,289.8,49.7,493.3c-7.8,203.5,151.7,375.4,355.7,383.3c157.9,6,296.8-88.1,355-225.4
		C759.5,651.2,758.5,651.3,757.5,651.5z"/>
	<path fill="#ADB5BC" d="M596.1,119.3V506c23.7-11.7,49.5-20.9,78.1-25.6c3.9-0.6,7.9-1.2,12-1.6V288.3
		C686.2,192.5,596.1,119.3,596.1,119.3z M505.9,397.9v167.4c21.8-16.8,44.9-34,70.5-48.8V265.8C576.4,265.8,505.9,323,505.9,397.9z"
		/>
	<path fill="#274E67" d="M972.3,627.3c-1.8-2.7-26.7-38.7-81.2-67.5c-10.2-5.4-21.5-10.5-33.8-15.2c-9.8-3.7-20.4-7-31.6-9.9
		c-11.5-3-23.7-5.5-36.7-7.3c-0.9-0.1-1.7-0.2-2.6-0.3c-0.8-0.1-1.7-0.2-2.6-0.3c-1.8-0.2-3.7-0.5-5.6-0.7c-0.9-0.1-1.7-0.2-2.5-0.3
		c-0.9-0.1-1.7-0.2-2.6-0.3c-25.5-2.5-53.7-2.6-84.8,0.6c-0.7,0.1-1.4,0.2-2.2,0.3c-4,0.5-8,1-12,1.6c-28.6,4.6-54.4,13.8-78.1,25.5
		c-6.7,3.3-13.3,6.9-19.7,10.6c-16.4,9.5-31.8,19.9-46.5,30.7c-12,8.8-23.5,17.7-34.8,26.4c-31,24.1-58.6,45.5-86.4,56.5
		c-5,2-10,3.6-15.1,4.8c-6,1.5-12,2.4-18.1,2.7c-31.5,1.7-65.1-12.9-105.8-54c-2.8-2.8-7.2-3.1-10.3-0.6c-3.1,2.4-3.8,6.8-1.7,10.2
		c2.1,3.4,53.3,82.8,146,99.3c62.8,11.2,128.8-9.5,196.3-61.3c25.5-19.6,50.3-34.9,74.2-46.7c25.9-12.7,50.7-21.3,74.1-26.7
		c1.1-0.2,2.2-0.5,3.2-0.7c1-0.2,2-0.5,3-0.7c5.9-1.3,11.8-2.4,17.6-3.2c0.9-0.1,1.9-0.2,2.8-0.4c0.9-0.1,1.8-0.2,2.7-0.3
		c109.3-14.5,182.5,37,183.6,37.7c3,2.2,7.2,1.9,9.9-0.7C973.9,634.5,974.4,630.4,972.3,627.3z"/>
</g>
</svg>
