<?xml version="1.0" encoding="utf-8"?>
<!-- Generator: Adobe Illustrator 16.0.0, SVG Export Plug-In . SVG Version: 6.00 Build 0)  -->
<!DOCTYPE svg PUBLIC "-//W3C//DTD SVG 1.1//EN" "http://www.w3.org/Graphics/SVG/1.1/DTD/svg11.dtd">
<svg version="1.1" id="Layer_1" xmlns="http://www.w3.org/2000/svg" xmlns:xlink="http://www.w3.org/1999/xlink" x="0px" y="0px"
	 width="100px" height="100px" viewBox="0 0 100 100" enable-background="new 0 0 100 100" xml:space="preserve">
<g>
	<path fill="#929497" d="M10.221,90.539c39.016-3.081,67.383-12.418,67.383-23.464c0-7.887-14.474-14.906-36.961-19.394
		C70.49,51.56,90.77,59.146,90.77,67.877C90.77,79.329,55.859,88.82,10.221,90.539z"/>
	<g>
		<radialGradient id="SVGID_1_" cx="46.2739" cy="35.7144" r="59.1613" gradientUnits="userSpaceOnUse">
			<stop  offset="0" style="stop-color:#00ADEE"/>
			<stop  offset="0.0016" style="stop-color:#01ADEE"/>
			<stop  offset="0.0526" style="stop-color:#15ABE6"/>
			<stop  offset="0.1029" style="stop-color:#22A9E2"/>
			<stop  offset="0.1515" style="stop-color:#26A9E0"/>
			<stop  offset="0.3273" style="stop-color:#1B75BB"/>
			<stop  offset="0.5212" style="stop-color:#2B388F"/>
			<stop  offset="0.7576" style="stop-color:#1C1651"/>
			<stop  offset="1" style="stop-color:#120742"/>
		</radialGradient>
		<path fill="url(#SVGID_1_)" d="M33.268,35.644c0.047,0.302,0.261,1.262,1.185,1.889c0.888,0.604,2.099,0.688,3.6,0.246
			c1.089-0.293,1.978-0.548,2.753-0.776c0.328,1.306,0.663,2.679,0.888,3.743c0.358,1.69-0.142,3.128-0.616,4.022
			c-0.385,0.912-2.128,1.368-2.128,1.368l-5.604,1.439c0,0-3.839,1.148-5.065,2.019c-2.328,1.646-5.566,4.932-4.764,10.117
			c0.661,4.263,1.859,7.297,2.824,9.191c0.829,1.62,2.274,3.1,3.626,3.802c2.097,1.092,5.545,2.2,9.489,0.758
			c3.15-1.282,5.317-2.973,6.09-3.811c1.596-1.728,2.537-3.943,3.043-5.456c0.482-1.568,0.136-3.641-0.459-5.832
			c-0.793-2.084,1.43-2.943,1.43-2.943s1.306-0.557,3.891-1.326c2.72-0.808,3.454,1.588,3.454,1.588s0.912,2.427,1.492,4.816
			c0.584,2.389-1.978,2.892-1.978,2.892s-0.876,0.178-4.817,1.493c-3.937,1.309-5.13,9.017-5.029,10.178
			c0.009,0.136-0.287,0.959,0.254,3.491c0.764,3.549-1.53,4.035-1.53,4.035l-6.815,1.797c0,0-3.497,1.208-3.94-1.84
			c-0.444-3.049-0.999-3.262-0.999-3.262s-3.478-7.199-11.265-5.915c-7.783,1.285-3.763,0.781-3.763,0.781s-4.476,1.48-5.521-2.196
			c-1.042-3.674-3.008-11.436-3.008-11.436s-1.102-4.253,2.635-5.502c1.989-0.725,1.993-0.772,5.317-1.859
			c1.412-0.465,3.606-1.548,5.003-2.762c2.081-1.805,4.514-4.624,3.748-7.469c-1.516-5.498-1.539-6.179-1.539-6.179
			s-0.019-2.584,1.935-3.125c1.205-0.338,3.284-1.048,5.273-1.611C32.842,33.933,33.2,35.365,33.268,35.644z"/>
		<radialGradient id="SVGID_2_" cx="46.2739" cy="35.7139" r="59.1861" gradientUnits="userSpaceOnUse">
			<stop  offset="0" style="stop-color:#00ADEE"/>
			<stop  offset="0.0016" style="stop-color:#01ADEE"/>
			<stop  offset="0.0526" style="stop-color:#15ABE6"/>
			<stop  offset="0.1029" style="stop-color:#22A9E2"/>
			<stop  offset="0.1515" style="stop-color:#26A9E0"/>
			<stop  offset="0.3273" style="stop-color:#1B75BB"/>
			<stop  offset="0.5212" style="stop-color:#2B388F"/>
			<stop  offset="0.7576" style="stop-color:#1C1651"/>
			<stop  offset="1" style="stop-color:#120742"/>
		</radialGradient>
		<path fill="url(#SVGID_2_)" d="M44.624,24.583c0,0-0.799-2.298-2.717-2.013c-1.924,0.29-7.534,1.85-7.534,1.85
			s-2.872,0.536-1.96,4.189c0.915,3.653,1.72,6.869,1.72,6.869s0.228,2.472,3.683,1.457c3.47-0.93,4.912-1.483,7.114-2.055
			c2.206-0.571,1.483-2.984,1.483-2.984L44.624,24.583z"/>
		<radialGradient id="SVGID_3_" cx="46.2744" cy="35.7119" r="59.1591" gradientUnits="userSpaceOnUse">
			<stop  offset="0" style="stop-color:#00ADEE"/>
			<stop  offset="0.0016" style="stop-color:#01ADEE"/>
			<stop  offset="0.0526" style="stop-color:#15ABE6"/>
			<stop  offset="0.1029" style="stop-color:#22A9E2"/>
			<stop  offset="0.1515" style="stop-color:#26A9E0"/>
			<stop  offset="0.3273" style="stop-color:#1B75BB"/>
			<stop  offset="0.5212" style="stop-color:#2B388F"/>
			<stop  offset="0.7576" style="stop-color:#1C1651"/>
			<stop  offset="1" style="stop-color:#120742"/>
		</radialGradient>
		<path fill="url(#SVGID_3_)" d="M52.849,18.008c0,0-0.491-1.427-1.685-1.249c-1.196,0.18-4.681,1.149-4.681,1.149
			s-1.785,0.331-1.216,2.602c0.568,2.268,1.069,4.266,1.069,4.266s0.139,1.533,2.285,0.903c2.155-0.577,3.05-0.92,4.42-1.273
			c1.371-0.355,0.921-1.856,0.921-1.856L52.849,18.008z"/>
		<radialGradient id="SVGID_4_" cx="46.2715" cy="35.7095" r="59.1489" gradientUnits="userSpaceOnUse">
			<stop  offset="0" style="stop-color:#00ADEE"/>
			<stop  offset="0.0016" style="stop-color:#01ADEE"/>
			<stop  offset="0.0526" style="stop-color:#15ABE6"/>
			<stop  offset="0.1029" style="stop-color:#22A9E2"/>
			<stop  offset="0.1515" style="stop-color:#26A9E0"/>
			<stop  offset="0.3273" style="stop-color:#1B75BB"/>
			<stop  offset="0.5212" style="stop-color:#2B388F"/>
			<stop  offset="0.7576" style="stop-color:#1C1651"/>
			<stop  offset="1" style="stop-color:#120742"/>
		</radialGradient>
		<path fill="url(#SVGID_4_)" d="M42.925,13.79c0,0-0.22-0.631-0.75-0.55c-0.527,0.077-2.072,0.508-2.072,0.508
			s-0.79,0.146-0.539,1.152c0.251,1.003,0.474,1.892,0.474,1.892s0.059,0.678,1.013,0.4c0.953-0.258,1.35-0.409,1.957-0.566
			c0.607-0.157,0.409-0.823,0.409-0.823L42.925,13.79z"/>
		<radialGradient id="SVGID_5_" cx="46.2739" cy="35.7134" r="59.1645" gradientUnits="userSpaceOnUse">
			<stop  offset="0" style="stop-color:#00ADEE"/>
			<stop  offset="0.0016" style="stop-color:#01ADEE"/>
			<stop  offset="0.0526" style="stop-color:#15ABE6"/>
			<stop  offset="0.1029" style="stop-color:#22A9E2"/>
			<stop  offset="0.1515" style="stop-color:#26A9E0"/>
			<stop  offset="0.3273" style="stop-color:#1B75BB"/>
			<stop  offset="0.5212" style="stop-color:#2B388F"/>
			<stop  offset="0.7576" style="stop-color:#1C1651"/>
			<stop  offset="1" style="stop-color:#120742"/>
		</radialGradient>
		<path fill="url(#SVGID_5_)" d="M48.716,12.019c0,0-0.154-0.444-0.524-0.391c-0.369,0.056-1.457,0.358-1.457,0.358
			s-0.557,0.103-0.378,0.811c0.177,0.708,0.331,1.33,0.331,1.33s0.044,0.477,0.713,0.278c0.67-0.178,0.948-0.284,1.374-0.397
			c0.43-0.109,0.288-0.577,0.288-0.577L48.716,12.019z"/>
	</g>
</g>
</svg>
